<svg width="24" height="24" viewBox="0 0 32 32" fill="none" xmlns="http://www.w3.org/2000/svg">
  <circle cx="16" cy="16" r="16" fill="#F7DF1E"/>
  <path d="M12.157 22.4c.597 1.054 1.705 1.827 3.406 1.827 1.788 0 2.918-.895 2.918-2.133 0-1.477-1.168-2.002-3.127-2.872l-.796-.336c-2.294-.971-3.823-2.192-3.823-4.764 0-2.415 1.829-4.251 4.496-4.251 2.01 0 3.478.698 4.475 2.528l-2.451 1.599c-.541-.994-1.125-1.381-2.032-1.381-1.08 0-1.758.699-1.758 1.359 0 .976.676 1.382 2.206 1.993l.796.337c2.718 1.155 4.262 2.35 4.262 4.843 0 2.242-1.755 4.345-5.082 4.345-2.822 0-4.682-1.399-5.555-3.23l2.508-1.424zm12.467 1.308c.596 1.04 1.175 1.916 2.472 1.916 1.075 0 1.759-.449 1.759-1.371 0-1.045-.674-1.385-1.824-1.864l-.619-.257c-1.781-.704-3.007-1.64-3.007-3.597 0-1.81 1.395-3.136 3.499-3.136 1.502 0 2.588.538 3.342 1.945l-2.425 1.398c-.32-.739-.667-1.049-1.254-1.049-.577 0-.948.367-.948.82 0 .587.367.82 1.192 1.158l.612.257c2.073.865 3.3 1.605 3.3 3.626 0 2.074-1.624 3.356-3.799 3.356-2.131 0-3.291-1.194-3.91-2.523l2.53-1.434z" fill="#000"/>
</svg>
