<svg width="24" height="24" viewBox="0 0 24 24" fill="none" xmlns="http://www.w3.org/2000/svg">
  <path d="M12 0C9.43 3.42 8.5 6.74 8.5 9.5c0 4.64 3.5 8 3.5 8s3.5-3.36 3.5-8c0-2.76-.93-6.08-3.5-9.5zm-.06 24c.5-.83.81-1.42.81-2.17V18h-1.5v3.83c0 .75.31 1.34.81 2.17-.08-.34-.13-.69-.13-1.06V18H11.25v4.94c0 .37-.05.72-.13 1.06.5-.83.81-1.42.81-2.17V18h-1.5v3.83c0 .75.31 1.34.81 2.17-.08-.34-.13-.69-.13-1.06V18H11.25v4.94c0 .37-.05.72-.13 1.06.5-.83.81-1.42.81-2.17V18h-1.5v3.83c0 .75.31 1.34.81 2.17-.08-.34-.13-.69-.13-1.06V18H11.25v4.94c0 .37-.05.72-.13 1.06.5-.83.81-1.42.81-2.17V18h-1.5v3.83c0 .75.31 1.34.81 2.17-.08-.34-.13-.69-.13-1.06V18H11.25v4.94c0 .37-.05.72-.13 1.06.5-.83.81-1.42.81-2.17V18h-1.5v3.83c0 .75.31 1.34.81 2.17-.08-.34-.13-.69-.13-1.06V18H11.25v4.94c0 .37-.05.72-.13 1.06.5-.83.81-1.42.81-2.17V18h-1.5v3.83c0 .75.31 1.34.81 2.17-.08-.34-.13-.69-.13-1.06V18H11.25v4.94c0 .37-.05.72-.13 1.06.5-.83.81-1.42.81-2.17V18h-1.5v3.83c0 .75.31 1.34.81 2.17-.08-.34-.13-.69-.13-1.06V18H11.25v4.94c0 .37-.05.72-.13 1.06zM13.5 18h-3v6h3v-6z" fill="#589636"/>
</svg>
