<svg width="24" height="24" viewBox="0 0 24 24" fill="none" xmlns="http://www.w3.org/2000/svg">
  <path d="M12 0C5.373 0 0 5.373 0 12s5.373 12 12 12 12-5.373 12-12S18.627 0 12 0zm0 3.018c1.032 0 1.855.823 1.855 1.855v7.542c0 1.032-.823 1.855-1.855 1.855s-1.855-.823-1.855-1.855V4.873c0-1.032.823-1.855 1.855-1.855zm0 17.964c-1.417 0-2.558-1.141-2.558-2.558 0-.893.426-1.716 1.14-2.236.28-.205.644-.318 1.011-.318.588 0 1.165.234 1.597.654.184.179.275.464.275.748v2.88c0 .617-.5 1.117-1.117 1.117-.284 0-.569-.091-.749-.275-.42-.431-.654-1.008-.654-1.597 0-.367.113-.732.318-1.011.52-.713 1.343-1.14 2.236-1.14 1.417 0 2.558 1.141 2.558 2.558 0 1.417-1.141 2.558-2.558 2.558z" fill="#43853D"/>
</svg>
